<svg xmlns="http://www.w3.org/2000/svg" width="29.489" height="30.294" viewBox="0 0 29.489 30.294"><defs><style>.a{fill:#00204f;}</style></defs><path class="a" d="M14.8,979.319a9.273,9.273,0,0,0,8.968,2.371l11.373,11.373a.777.777,0,0,0,.49.232l5.1.4a.778.778,0,0,0,.825-.859l-.7-6.992a.777.777,0,0,0-.764-.7H37.56v-2.525a.778.778,0,0,0-.773-.773H34.261v-2.525a.778.778,0,0,0-.223-.55l-3.676-3.676A9.307,9.307,0,1,0,14.8,979.319Zm1.1-1.1a7.775,7.775,0,1,1,12.885-3.092.778.778,0,0,0,.2.782l3.728,3.728v2.989a.778.778,0,0,0,.773.773h2.525v2.525a.777.777,0,0,0,.773.773H39.39l.533,5.36-3.883-.292L24.581,980.307a.777.777,0,0,0-.79-.189,7.765,7.765,0,0,1-7.894-1.9ZM17.271,973a3.11,3.11,0,1,0,0-4.4,3.122,3.122,0,0,0,0,4.4Zm1.1-1.1a1.555,1.555,0,1,1,2.2,0A1.543,1.543,0,0,1,18.37,971.9Z" transform="translate(-12.069 -963.397)"/></svg>